<?xml version="1.0" encoding="UTF-8" standalone="no"?>
<!-- Created with Inkscape (http://www.inkscape.org/) -->

<svg
   width="1920px"
   height="1080px"
   viewBox="0 0 1920 1080"
   version="1.1"
   id="SVGRoot"
   sodipodi:docname="model1.svg"
   inkscape:version="1.2.2 (b0a8486541, 2022-12-01)"
   xmlns:inkscape="http://www.inkscape.org/namespaces/inkscape"
   xmlns:sodipodi="http://sodipodi.sourceforge.net/DTD/sodipodi-0.dtd"
   xmlns="http://www.w3.org/2000/svg"
   xmlns:svg="http://www.w3.org/2000/svg">
  <sodipodi:namedview
     id="namedview21"
     pagecolor="#ffffff"
     bordercolor="#000000"
     borderopacity="0.25"
     inkscape:showpageshadow="2"
     inkscape:pageopacity="0.0"
     inkscape:pagecheckerboard="0"
     inkscape:deskcolor="#d1d1d1"
     showgrid="false"
     inkscape:zoom="0.65104167"
     inkscape:cx="960"
     inkscape:cy="540.672"
     inkscape:window-width="1920"
     inkscape:window-height="1007"
     inkscape:window-x="0"
     inkscape:window-y="0"
     inkscape:window-maximized="1"
     inkscape:current-layer="SVGRoot" />
  <defs
     id="defs135" />
  <g
     id="layer1">
    <g
       id="text204"
       style="font-size:800px;font-family:'SEGA LOGO FONT';-inkscape-font-specification:'SEGA LOGO FONT, Normal'" />
    <g
       id="text258"
       style="font-size:800px;font-family:'SEGA LOGO FONT';-inkscape-font-specification:'SEGA LOGO FONT, Normal'" />
    <g
       id="text262"
       style="font-size:800px;font-family:'SEGA LOGO FONT';-inkscape-font-specification:'SEGA LOGO FONT, Normal'" />
    <g
       id="text266"
       style="font-size:192px;font-family:'SEGA LOGO FONT';-inkscape-font-specification:'SEGA LOGO FONT, Normal'" />
    <g
       aria-label="sega"
       transform="matrix(0.32506111,-0.92614116,0.98709549,0.26398186,0,0)"
       id="text384"
       style="font-size:117.922px;font-family:'SEGA LOGO FONT';-inkscape-font-specification:'SEGA LOGO FONT, Normal';fill:#ffffff;stroke-width:0.614179">
      <path
         d="m -618.42332,440.80017 q -0.94338,0 -1.53299,0.58961 -0.47168,0.58961 -0.47168,1.41506 0,0.70753 0.35376,1.41507 0.35377,0.58961 1.0613,0.70753 0.35377,0.11792 2.71221,0.70753 2.47636,0.47169 5.54233,1.17922 3.06597,0.70753 6.13194,1.65091 3.1839,0.82545 4.83481,1.65091 3.53766,2.00467 6.95739,4.8348 3.41974,2.83013 6.13195,6.83947 2.7122,3.89143 4.36311,9.19792 1.65091,5.18857 1.65091,11.91012 0,8.0187 -2.94805,14.97609 -2.83013,6.83948 -7.78285,11.91013 -4.95273,5.07064 -11.7922,8.01869 -6.72156,2.94805 -14.50441,2.94805 h -39.97556 v -15.68362 h 39.97556 q 4.95273,0 8.96207,-1.65091 4.12727,-1.65091 7.07532,-4.59896 2.94805,-2.94805 4.48104,-6.9574 1.65091,-4.12727 1.65091,-8.96207 0,-6.13194 -2.24052,-10.02337 -2.24052,-3.89142 -5.54233,-6.13194 -3.30182,-2.35844 -7.19325,-3.41974 -3.7735,-1.17922 -6.95739,-1.88675 -3.53766,-0.70753 -6.9574,-1.88675 -3.30182,-1.29715 -5.8961,-3.41974 -2.59429,-2.1226 -4.24519,-5.30649 -1.53299,-3.1839 -1.53299,-7.90078 0,-4.48103 1.29714,-7.78285 1.29714,-3.41974 3.53766,-5.66025 2.35844,-2.24052 5.42441,-3.30182 3.1839,-1.17922 6.83948,-1.17922 h 39.03218 v 15.68363 z m -0.58961,-20.04674 q -4.8348,0 -8.84415,1.65091 -3.89143,1.6509 -6.72155,4.59895 -2.71221,2.94805 -4.2452,7.07532 -1.53298,4.00935 -1.53298,8.84415 0,5.07065 1.76883,8.84415 1.76883,3.77351 4.48103,6.48571 2.83013,2.71221 6.24987,4.36312 3.41974,1.53298 6.72155,2.12259 3.1839,0.58961 6.9574,1.65091 3.77351,0.94338 6.9574,2.94805 3.18389,1.88675 5.30649,5.18857 2.1226,3.30181 2.1226,8.37246 0,4.48104 -1.41507,7.90077 -1.41506,3.30182 -3.89142,5.54234 -2.47637,2.24052 -5.77818,3.41974 -3.1839,1.06129 -6.83948,1.06129 h -39.97556 v -15.68362 h 38.5605 q 0.94337,0 1.41506,-0.58961 0.58961,-0.70753 0.58961,-1.41507 0,-1.6509 -1.41506,-2.24051 -0.35377,-0.11793 -2.83013,-0.58961 -2.47636,-0.47169 -5.66026,-1.17922 -3.06597,-0.70754 -6.13194,-1.53299 -3.06597,-0.94338 -4.71688,-1.88675 -3.41974,-1.88675 -6.72155,-4.71688 -3.30182,-2.83013 -5.8961,-6.72155 -2.47637,-4.00935 -4.00935,-9.19792 -1.53299,-5.30649 -1.53299,-12.14597 0,-7.90077 2.83013,-14.85817 2.94805,-6.9574 7.90077,-12.02804 4.95273,-5.07065 11.67428,-8.0187 6.83948,-2.94805 14.62233,-2.94805 h 39.03218 v 15.68363 z"
         id="path131" />
      <path
         d="m -575.61774,440.68225 q 0,-7.42909 2.71221,-13.9148 2.71221,-6.60363 7.19324,-11.32051 4.59896,-4.8348 10.49506,-7.54701 6.01402,-2.83013 12.38181,-2.83013 h 44.69244 v 15.68363 h -42.80569 q -4.48104,0 -8.0187,1.76883 -3.53766,1.76883 -6.01402,4.59896 -2.35844,2.83012 -3.65558,6.48571 -1.29714,3.53766 -1.29714,7.07532 v 44.45659 q 0,3.53766 1.29714,7.19324 1.29714,3.53766 3.65558,6.36779 2.47636,2.83013 6.01402,4.59896 3.53766,1.76883 8.0187,1.76883 h 42.80569 v 15.68362 h -44.69244 q -6.36779,0 -12.38181,-2.7122 -5.8961,-2.83013 -10.49506,-7.54701 -4.48103,-4.8348 -7.19324,-11.32051 -2.71221,-6.60364 -2.71221,-14.03272 z m 19.92882,20.28258 v -17.92414 q 0,-3.06598 0.94338,-6.24987 1.06129,-3.30182 3.06597,-5.8961 2.00467,-2.59428 5.07064,-4.24519 3.06598,-1.65091 7.19325,-1.65091 h 41.2727 v 15.68363 h -40.91894 q -0.70753,0 -1.53298,0.82545 -0.70754,0.82545 -0.70754,2.24052 v 1.65091 h 34.19738 v 15.5657 z m 0,3.89143 h 48.58386 v 15.68362 h -34.19738 v 1.53299 q 0,1.41506 0.70754,2.24051 0.82545,0.82546 1.53298,0.82546 h 40.91894 v 15.68362 h -41.2727 q -4.12727,0 -7.19325,-1.6509 -3.06597,-1.65091 -5.07064,-4.2452 -2.00468,-2.59428 -3.06597,-5.77817 -0.94338,-3.30182 -0.94338,-6.36779 z"
         id="path133" />
      <path
         d="m -407.22504,520.75128 h -53.0649 q -6.36778,0 -12.3818,-2.7122 -5.8961,-2.83013 -10.49506,-7.54701 -4.48104,-4.8348 -7.19324,-11.32051 -2.71221,-6.60364 -2.71221,-14.03272 v -44.45659 q 0,-7.42909 2.71221,-13.9148 2.7122,-6.60363 7.19324,-11.32051 4.59896,-4.8348 10.49506,-7.54701 6.01402,-2.83013 12.3818,-2.83013 h 53.0649 v 15.68363 h -51.17814 q -4.48104,0 -8.0187,1.76883 -3.53766,1.76883 -6.01402,4.59896 -2.35844,2.83012 -3.65558,6.48571 -1.29714,3.53766 -1.29714,7.07532 v 44.45659 q 0,3.53766 1.29714,7.19324 1.29714,3.53766 3.65558,6.36779 2.47636,2.83013 6.01402,4.59896 3.53766,1.76883 8.0187,1.76883 h 37.97088 v -44.10283 h -35.14076 v -15.5657 h 48.34802 z m -49.29139,-35.61244 h 12.97142 q 0.82545,0 1.17922,-0.70753 0.47169,-0.70754 0.47169,-1.53299 0,-0.94338 -0.47169,-1.65091 -0.35377,-0.70753 -1.17922,-0.70753 h -12.02805 v -15.68362 h 31.01349 v 35.9662 h -32.31063 q -4.12727,0 -7.19324,-1.6509 -3.06597,-1.65091 -5.07064,-4.2452 -2.00468,-2.59428 -3.06598,-5.77817 -0.94337,-3.30182 -0.94337,-6.36779 v -39.73971 q 0,-3.06598 0.94337,-6.24987 1.0613,-3.30182 3.06598,-5.8961 2.00467,-2.59428 5.07064,-4.24519 3.06597,-1.65091 7.19324,-1.65091 h 49.64516 v 15.68363 h -49.29139 q -0.70753,0 -1.53299,0.82545 -0.70753,0.82545 -0.70753,2.24052 v 38.32465 q 0,1.41506 0.70753,2.24051 0.82546,0.82546 1.53299,0.82546 z"
         id="path135" />
      <path
         d="m -366.18826,506.95441 h 48.93763 l -29.95219,-83.13501 q -0.35376,-1.17922 -2.12259,-2.1226 -1.76883,-0.94337 -3.41974,-0.94337 -1.88675,0 -3.53766,0.94337 -1.53299,0.94338 -1.88675,2.1226 l -34.07946,96.93188 h -15.68362 l 36.43789,-102.82798 q 0.82546,-2.47636 2.35844,-4.71688 1.53299,-2.35844 3.77351,-4.12727 2.35844,-1.88675 5.42441,-2.94805 3.18389,-1.0613 7.19324,-1.0613 4.00935,0 7.07532,1.0613 3.06597,1.0613 5.30649,2.94805 2.35844,1.76883 3.89143,4.12727 1.53298,2.24052 2.47636,4.71688 l 36.43789,102.82798 h -68.6306 z m 0,-4.24519 v -4.48104 l -7.54701,22.5231 h -14.26856 l 32.42855,-93.98383 q 0.23585,-0.70753 1.0613,-1.17922 0.94338,-0.58961 1.76883,-0.58961 0.82545,0 1.76883,0.58961 0.94338,0.47169 1.17922,1.17922 l 26.88622,75.94177 z m 13.44311,-43.74906 -9.43376,29.71634 h 19.22129 z"
         id="path137" />
    </g>
    <g
       aria-label="Model "
       transform="scale(0.99874835,1.0012532)"
       id="text388"
       style="font-size:337.812px;font-family:'SEGA LOGO FONT';-inkscape-font-specification:'SEGA LOGO FONT, Normal';fill:#ffffff;stroke-width:1.75944">
      <path
         d="m 534.79435,594.89938 -48.30711,-129.382 q -1.35125,-3.37812 -5.74281,-6.08062 -4.39155,-2.70249 -9.79655,-2.70249 -4.72936,0 -9.79654,2.70249 -5.06718,2.7025 -6.08062,6.08062 l -97.28986,277.68147 h -44.929 L 417.23577,448.62678 q 2.7025,-7.09405 7.09406,-13.51248 4.39155,-6.75624 10.80998,-11.82342 6.75624,-5.40499 15.53935,-8.4453 8.78312,-3.04031 20.26872,-3.04031 11.48561,0 19.93091,3.04031 8.4453,3.04031 14.86373,8.4453 6.41843,5.06718 10.80999,11.82342 4.72936,6.41843 8.10748,13.51248 l 10.13436,20.26872 10.13436,-20.26872 q 3.71594,-7.09405 8.10749,-13.51248 4.72937,-6.75624 10.80999,-11.82342 6.41843,-5.40499 14.86373,-8.4453 8.4453,-3.04031 19.9309,-3.04031 11.1478,0 19.93091,3.04031 9.12093,3.04031 15.53936,8.4453 6.75624,5.06718 11.14779,11.82342 4.72937,6.41843 7.09405,13.51248 l 104.38392,294.57207 h -44.929 L 614.51799,465.51738 q -1.01344,-3.37812 -6.08062,-6.08062 -5.06718,-2.70249 -9.79655,-2.70249 -5.40499,0 -9.79654,2.70249 -4.39156,2.7025 -5.74281,6.08062 z m 0,148.29947 -63.84647,-170.25725 -56.07679,170.25725 h -44.929 l 92.56049,-269.23617 q 0.67563,-2.02687 3.37812,-3.37812 2.7025,-1.68906 5.06718,-1.68906 2.36469,0 4.72937,1.68906 2.7025,1.35125 3.37812,3.37812 l 55.73898,153.70446 55.73899,-153.70446 q 0.67562,-2.02687 3.0403,-3.37812 2.7025,-1.68906 5.06718,-1.68906 2.36469,0 5.06718,1.68906 2.7025,1.35125 3.37813,3.37812 l 92.56049,269.23617 H 656.40668 L 598.64082,572.9416 Z"
         id="path140" />
      <path
         d="m 832.74438,743.19885 h 43.23994 q 24.66028,0 42.2265,-5.7428 17.90404,-5.74281 29.38964,-17.90404 11.48561,-12.49904 16.89061,-31.75433 5.40499,-19.59309 5.40499,-46.61806 V 513.8245 q 0,-28.0384 -5.40499,-47.29369 -5.405,-19.59309 -16.89061,-31.75432 -11.4856,-12.16124 -29.38964,-17.56623 -17.56622,-5.40499 -42.2265,-5.40499 h -43.23994 q -24.32246,0 -41.88869,5.40499 -17.56622,5.40499 -29.38964,17.56623 -11.48561,12.16123 -17.22842,31.75432 -5.40499,19.25529 -5.40499,47.29369 v 127.35512 q 0,27.02497 5.40499,46.61806 5.74281,19.25529 17.22842,31.75433 11.82342,12.16123 29.38964,17.90404 17.56623,5.7428 41.88869,5.7428 z m 21.61997,-44.929 h -26.34934 q -12.83685,0 -21.61997,-3.37812 -8.78311,-3.71593 -14.52591,-10.13436 -5.40499,-6.41842 -8.10749,-15.20154 -2.36468,-8.78311 -2.36468,-18.91747 v -146.2726 q 0,-10.13436 2.36468,-18.91747 2.7025,-8.78311 8.10749,-15.20154 5.7428,-6.41843 14.52591,-9.79655 9.12093,-3.71593 21.95778,-3.71593 h 52.02305 q 12.83686,0 21.61997,3.71593 9.12093,3.37812 14.52592,9.79655 5.7428,6.41843 8.10749,15.20154 2.70249,8.78311 2.70249,18.91747 v 146.2726 q 0,10.13436 -2.70249,18.91747 -2.36469,8.78312 -8.10749,15.20154 -5.40499,6.41843 -14.1881,10.13436 -8.78312,3.37812 -21.61997,3.37812 z m 21.95778,-12.16123 q 11.82342,0 19.25529,-2.02687 7.76967,-2.36468 11.82342,-7.43186 4.39155,-5.06718 6.08061,-12.83686 1.68906,-8.10749 1.68906,-19.93091 V 511.122 q 0,-8.78311 -1.68906,-16.55279 -1.68906,-7.76967 -6.08061,-13.51248 -4.39156,-5.7428 -12.16124,-8.78311 -7.43186,-3.37812 -19.25528,-3.37812 h -21.61997 -21.61997 q -11.82342,0 -19.5931,3.37812 -7.43186,3.04031 -11.82342,8.78311 -4.39155,5.74281 -6.08061,13.51248 -1.68906,7.76968 -1.68906,16.55279 v 132.76012 q 0,11.82342 1.68906,19.93091 1.68906,7.76968 5.7428,12.83686 4.39156,5.06718 11.82342,7.43186 7.76968,2.02687 19.5931,2.02687 z m -32.76776,-44.929 q -4.05375,0 -5.405,-2.36468 -1.01343,-2.36468 -1.01343,-6.41843 v -109.7889 q 0,-4.05375 1.01343,-6.41843 1.35125,-2.36468 5.405,-2.36468 h 21.61996 q 4.05375,0 5.06718,2.36468 1.35125,2.36468 1.35125,6.41843 v 109.7889 q 0,4.05375 -1.35125,6.41843 -1.01343,2.36468 -5.06718,2.36468 z"
         id="path142" />
      <path
         d="m 1119.2087,698.26985 h -92.2226 V 524.63448 h -42.56435 v 218.56437 h 130.05765 q 24.6603,0 42.2265,-5.7428 17.904,-5.74281 29.3896,-17.90404 11.4856,-12.49904 16.8906,-31.75433 5.405,-19.59309 5.405,-46.61806 V 513.8245 q 0,-28.0384 -5.405,-47.29369 -5.405,-19.59309 -16.8906,-31.75432 -11.4856,-12.16124 -29.3896,-17.56623 -17.5662,-5.40499 -42.2265,-5.40499 H 984.42175 v 44.929 h 134.44915 q 12.8369,0 21.62,3.71593 9.1209,3.37812 14.5259,9.79655 5.7428,6.41843 8.1075,15.20154 2.7025,8.78311 2.7025,18.91747 v 146.2726 q 0,10.13436 -2.7025,18.91747 -2.3647,8.78312 -8.1075,15.20154 -5.405,6.41843 -14.1881,10.13436 -8.7831,3.37812 -21.62,3.37812 z M 1102.3181,513.8245 q 4.0538,0 6.4185,2.36468 2.7025,2.36468 2.7025,6.41843 v 109.7889 q 0,4.05375 -2.7025,6.41843 -2.3647,2.36468 -6.4185,2.36468 h -7.4318 q -8.4453,0 -8.4453,-8.78311 V 524.63448 h -47.2937 v 161.47414 h 75.6699 q 11.8234,0 19.2553,-2.02687 7.7697,-2.36468 11.8234,-7.43186 4.3916,-5.06718 6.0806,-12.83686 1.6891,-8.10749 1.6891,-19.93091 V 511.122 q 0,-8.78311 -1.6891,-16.55279 -1.689,-7.76967 -6.0806,-13.51248 -4.3916,-5.7428 -12.1612,-8.78311 -7.4319,-3.37812 -19.2553,-3.37812 H 984.42175 v 44.929 z"
         id="path144" />
      <path
         d="m 1221.228,513.8245 q 0,-21.28216 7.7697,-39.86182 7.7697,-18.91747 20.6065,-32.42995 13.1747,-13.8503 30.0653,-21.61997 17.2284,-8.10749 35.4703,-8.10749 h 128.0307 v 44.929 h -122.6257 q -12.8369,0 -22.9713,5.06718 -10.1343,5.06718 -17.2284,13.17467 -6.7562,8.10748 -10.4721,18.57966 -3.716,10.13436 -3.716,20.26872 v 127.35512 q 0,10.13437 3.716,20.60654 3.7159,10.13436 10.4721,18.24185 7.0941,8.10748 17.2284,13.17466 10.1344,5.06718 22.9713,5.06718 h 122.6257 v 44.929 h -128.0307 q -18.2419,0 -35.4703,-7.76967 -16.8906,-8.10749 -30.0653,-21.61997 -12.8368,-13.85029 -20.6065,-32.42996 -7.7697,-18.91747 -7.7697,-40.19963 z m 57.0903,58.10366 v -51.34742 q 0,-8.78312 2.7025,-17.90404 3.0403,-9.45874 8.7831,-16.8906 5.7428,-7.43186 14.5259,-12.16123 8.7831,-4.72937 20.6065,-4.72937 h 118.2342 v 44.929 h -117.2207 q -2.0269,0 -4.3916,2.36468 -2.0269,2.36468 -2.0269,6.41843 v 4.72937 h 97.9655 v 44.59118 z m 0,11.1478 h 139.1785 v 44.929 h -97.9655 v 4.39155 q 0,4.05375 2.0269,6.41843 2.3647,2.36468 4.3916,2.36468 h 117.2207 v 44.929 h -118.2342 q -11.8234,0 -20.6065,-4.72937 -8.7831,-4.72936 -14.5259,-12.16123 -5.7428,-7.43186 -8.7831,-16.55279 -2.7025,-9.45873 -2.7025,-18.24185 z"
         id="path146" />
      <path
         d="m 1679.6392,743.19885 h -128.0307 q -18.2419,0 -35.4703,-7.76967 -16.8906,-8.10749 -30.0653,-21.61997 -12.8368,-13.85029 -20.6065,-32.42996 -7.7697,-18.91747 -7.7697,-40.19963 V 411.80527 h 44.929 v 229.37435 q 0,10.13437 3.7159,20.60654 3.716,10.13436 10.4722,18.24185 7.0941,8.10748 17.2284,13.17466 10.1344,5.06718 22.9712,5.06718 h 122.6258 z M 1567.4856,641.17962 h 112.1536 v 44.929 H 1561.405 q -11.8234,0 -20.6065,-4.72937 -8.7831,-4.72936 -14.5259,-12.16123 -5.7428,-7.43186 -8.7832,-16.55279 -2.7025,-9.45873 -2.7025,-18.24185 V 411.80527 h 46.2803 v 220.59124 q 0,4.05375 2.0269,6.41843 2.3646,2.02687 4.3915,2.02687 z"
         id="path148" />
    </g>
    <g
       id="text504"
       style="font-size:192px;font-family:'SEGA LOGO FONT';-inkscape-font-specification:'SEGA LOGO FONT, Normal'" />
    <g
       aria-label="1"
       transform="scale(0.99874835,1.0012532)"
       id="text510"
       style="font-size:337.812px;font-family:Youngster;-inkscape-font-specification:'Youngster, Normal';fill:#ffffff;stroke-width:1.75944">
      <path
         d="m 1670.855,414.26759 q 0,-0.67562 0.6756,-2.36468 0.6756,-1.68906 1.3512,-3.37812 0.6757,-1.68906 0.6757,-3.04031 0.3378,-1.68906 -0.3379,-2.36469 -0.6756,-1.01343 -2.7025,-0.67562 -9.1209,2.36468 -18.5796,-1.01344 -9.4587,-3.37812 -13.5125,-11.4856 -6.0806,-11.82342 1.0134,-25.3359 7.4319,-13.51248 22.6334,-23.30903 15.2016,-9.79655 32.0922,-15.53936 17.2284,-5.7428 32.7678,-2.02687 15.5393,3.37812 21.2821,16.55279 1.6891,5.40499 1.6891,11.82342 0,6.08062 -1.3513,12.83686 -1.0134,6.41843 -2.7025,11.82342 -1.3512,5.40499 -3.7159,12.83685 -2.3647,7.43187 -3.3781,11.82342 l -19.2553,77.35896 q -2.0269,7.09405 -5.0672,23.30902 -3.0403,16.21498 -6.7562,30.06527 -3.3782,13.8503 -9.121,21.28216 -7.4318,7.76968 -20.9443,9.12092 -13.1747,1.68906 -23.309,-2.36468 -4.0538,-1.35125 -7.0941,-3.37812 -2.7025,-2.02687 -4.0537,-5.06718 -1.0135,-3.37812 -2.0269,-5.40499 -0.6756,-2.36469 -0.3378,-6.75624 0.6756,-4.39156 1.0134,-6.08062 0.3378,-2.02687 1.6891,-7.43186 1.3512,-5.405 1.689,-6.41843 0.6757,-4.05375 4.0538,-18.91747 3.3781,-15.20154 5.0672,-23.30903 2.0268,-8.4453 5.0672,-21.28216 3.0403,-12.83686 5.7428,-22.97122 3.0403,-10.47217 5.7428,-18.91747 z"
         id="path152" />
    </g>
  </g>
</svg>
