<?xml version="1.0" encoding="UTF-8" standalone="no"?>
<svg
   version="1.1"
   viewBox="0 0 3839 1292.4"
   id="svg6"
   sodipodi:docname="model1.svg"
   inkscape:version="1.2.2 (b0a8486541, 2022-12-01)"
   xmlns:inkscape="http://www.inkscape.org/namespaces/inkscape"
   xmlns:sodipodi="http://sodipodi.sourceforge.net/DTD/sodipodi-0.dtd"
   xmlns="http://www.w3.org/2000/svg"
   xmlns:svg="http://www.w3.org/2000/svg">
  <defs
     id="defs10" />
  <sodipodi:namedview
     id="namedview8"
     pagecolor="#ffffff"
     bordercolor="#000000"
     borderopacity="0.25"
     inkscape:showpageshadow="2"
     inkscape:pageopacity="0.0"
     inkscape:pagecheckerboard="0"
     inkscape:deskcolor="#d1d1d1"
     showgrid="false"
     inkscape:zoom="0.32560563"
     inkscape:cx="1833.5064"
     inkscape:cy="644.95199"
     inkscape:window-width="1920"
     inkscape:window-height="1007"
     inkscape:window-x="0"
     inkscape:window-y="0"
     inkscape:window-maximized="1"
     inkscape:current-layer="svg6" />
  <path
     class="st1"
     d="M 1490 274.7 C 1490 240.7 1461.7 212.5 1427.8 212.5 L 1382.5 212.5 C 1341.5 212.5 1307.5 178.5 1307.5 137.5 C 1307.5 96.5 1341.5 62.5 1382.5 62.5 L 1557.9 62.5 L 1557.9 7.3 L 1381.1 7.3 C 1308.9 7.3 1250.9 65.3 1250.9 137.5 C 1250.9 209.7 1308.9 267.7 1381.1 267.7 L 1426.4 267.7 C 1430.6 267.7 1433.5 270.5 1433.5 274.8 C 1433.5 279 1430.7 281.9 1427.8 281.9 L 1250.9 281.9 L 1250.9 337 L 1427.7 337 C 1461.7 337 1490 308.7 1490 274.7 Z M 1427.7 144.8 L 1382.4 144.8 C 1378.2 144.8 1375.3 142 1375.3 137.7 C 1375.3 134.9 1378.1 132 1381 132 L 1557.9 132 L 1557.9 75.4 L 1381.1 75.5 C 1347.1 75.5 1318.9 103.8 1318.9 137.8 C 1318.9 171.8 1347.2 200 1381.2 200 L 1426.5 200 C 1467.5 200 1501.5 233.9 1501.5 274.9 C 1501.5 315.9 1467.6 349.9 1426.6 349.9 L 1251.2 350 L 1251.2 405.2 L 1428 405.1 C 1500.2 405.1 1558.1 347 1558.1 274.9 C 1558.1 202.8 1499.9 144.8 1427.7 144.8 Z M 2043.2 130.4 L 2200.2 130.4 L 2200.2 75.2 L 2016.3 75.2 C 1992.2 75.2 1973.9 93.6 1973.9 117.6 L 1973.9 294.4 C 1973.9 318.5 1992.3 336.8 2016.3 336.8 L 2130.9 336.8 L 2130.9 212.5 L 2043.2 212.5 L 2043.2 267.7 L 2075.7 267.7 L 2075.7 280.4 L 2043.2 280.4 C 2036.1 280.4 2030.5 274.7 2030.5 267.7 L 2030.5 143.1 C 2030.5 136.1 2036.1 130.4 2043.2 130.4 Z M 2493.1 337 L 2405.4 76.7 C 2402.6 69.6 2396.9 64 2388.4 64 C 2381.3 64 2374.3 69.7 2371.4 75.3 L 2258.2 404.9 L 2323.3 404.9 L 2362.9 287.5 L 2362.9 337 L 2493.1 337 Z M 2387 218.1 L 2405.4 274.7 L 2367.2 274.7 L 2387 218.1 Z M 2473.2 65 C 2461.9 28.3 2427.9 0 2386.9 0 C 2345.9 0 2311.9 26.9 2302 63.7 L 2198.9 366.5 L 2198.8 144.4 L 2043.2 144.5 L 2043.2 199.7 L 2145.1 199.6 L 2145.2 349.6 L 2017.9 349.7 C 1986.8 349.7 1962.7 324.3 1962.7 294.6 L 1962.6 117.8 C 1962.6 86.7 1988 62.6 2017.7 62.6 L 2200.2 62.5 L 2200.2 7.3 L 2016.3 7.4 C 1955.5 7.4 1906 57 1906 117.8 L 1906.1 294.6 C 1906.1 355.4 1955.7 404.9 2016.5 404.9 L 2244.3 404.8 L 2358.7 72.3 C 2362.9 59.6 2374.3 51.1 2388.4 51.1 C 2402.5 51.1 2413.9 59.6 2418.1 72.3 L 2511.6 349.5 L 2364.5 349.6 L 2364.5 404.8 L 2588 404.7 L 2473.2 65 Z M 1640 294.5 L 1640 117.7 C 1640 86.6 1665.5 62.5 1695.2 62.5 L 1884.8 62.5 L 1884.8 7.3 L 1695.2 7.3 C 1634.4 7.3 1584.8 56.8 1584.8 117.7 L 1584.8 294.5 C 1584.8 355.3 1634.3 404.9 1695.2 404.9 L 1884.8 404.9 L 1884.8 349.7 L 1695.2 349.7 C 1664 349.7 1640 324.2 1640 294.5 Z M 1720.7 283.3 C 1713.6 281.9 1708 276.2 1708 269.2 L 1845.2 269.1 L 1845.2 213.9 L 1652.8 214 L 1652.8 296.1 C 1652.8 320.2 1671.2 338.5 1695.3 338.5 L 1884.9 338.4 L 1884.9 283.2 L 1720.7 283.3 Z M 1720.6 131.8 L 1883.3 131.8 L 1883.3 75.2 L 1695.1 75.2 C 1671 75.2 1652.7 93.6 1652.7 117.6 L 1652.7 199.7 L 1845.1 199.7 L 1845.1 144.5 L 1707.9 144.5 C 1707.9 137.5 1713.6 131.8 1720.6 131.8 Z"
     style="fill: rgb(255, 255, 255);"
     id="path2" />
  <text
     xml:space="preserve"
     style="font-size:1333.33px;font-family:'SEGA LOGO FONT';-inkscape-font-specification:'SEGA LOGO FONT, Normal';fill:#800000"
     x="4222.5708"
     y="1848.318"
     id="text330"><tspan
       sodipodi:role="line"
       id="tspan328"
       x="4222.5708"
       y="1848.318" /></text>
  <text
     xml:space="preserve"
     style="font-size:1333.33px;font-family:'SEGA LOGO FONT';-inkscape-font-specification:'SEGA LOGO FONT, Normal';fill:#ffffff"
     x="137.01866"
     y="1289.7955"
     id="text334"><tspan
       sodipodi:role="line"
       id="tspan332"
       x="137.01866"
       y="1289.7955"
       style="font-style:normal;font-variant:normal;font-weight:normal;font-stretch:normal;font-size:800px;font-family:'SEGA LOGO FONT';-inkscape-font-specification:'SEGA LOGO FONT, Normal';font-variant-ligatures:normal;font-variant-caps:normal;font-variant-numeric:normal;font-variant-east-asian:normal;fill:#ffffff">MODEL i</tspan></text>
</svg>
